<svg fill="#000000" xmlns="http://www.w3.org/2000/svg"  viewBox="0 0 50 50" width="1200px" height="1200px"><path fill="none" stroke="#000000" stroke-miterlimit="10" stroke-width="2" d="M25 3A22 22 0 1 0 25 47A22 22 0 1 0 25 3Z"/><path fill="none" stroke="#000000" stroke-miterlimit="10" stroke-width="2" d="M25 7A18 18 0 1 0 25 43A18 18 0 1 0 25 7Z"/><path fill="none" stroke="#000000" stroke-miterlimit="10" stroke-width="2" d="M31.928,15.453L32.731,13h-6.723l-0.771,2h-8.16L15,19h13.71c4.911,0,3.632,5.459,0.527,8.563c-3.197,3.197-6.987,3.032-6.987,3.032L26.744,19h-5.273L15,34c0,0,1.438,0,3,0l-0.693,2h6.723l0.749-1.985c4.144-0.965,8.626-3.156,11.313-7.935C40.92,17.496,35.483,15.791,31.928,15.453z"/><path d="M21.185 33L20.131 36.156 21.079 36.473 22.239 33zM28.819 16L29.771 13.149 28.822 12.833 27.765 16z"/></svg>